<?xml version="1.0" encoding="utf-8" standalone="no"?>
<!DOCTYPE svg PUBLIC "-//W3C//DTD SVG 1.1//EN"
  "http://www.w3.org/Graphics/SVG/1.1/DTD/svg11.dtd">
<!-- Created with matplotlib (http://matplotlib.org/) -->
<svg height="288pt" version="1.1" viewBox="0 0 288 288" width="288pt" xmlns="http://www.w3.org/2000/svg" xmlns:xlink="http://www.w3.org/1999/xlink">
 <defs>
  <style type="text/css">
*{stroke-linecap:butt;stroke-linejoin:round;}
  </style>
 </defs>
 <g id="figure_1">
  <g id="patch_1">
   <path d="
M0 288
L288 288
L288 0
L0 0
z
" style="fill:#ffffff;"/>
  </g>
  <g id="axes_1">
   <g id="patch_2">
    <path d="
M33.6219 260.2
L277.2 260.2
L277.2 15.3
L33.6219 15.3
z
" style="fill:#e5e5e5;"/>
   </g>
   <g id="matplotlib.axis_1">
    <g id="xtick_1">
     <g id="line2d_1">
      <path clip-path="url(#p0f64fca384)" d="
M33.6219 260.2
L33.6219 15.3" style="fill:none;stroke:#ffffff;stroke-linecap:square;stroke-width:0.5;"/>
     </g>
     <g id="line2d_2">
      <defs>
       <path d="
M0 0
L0 4" id="m64c3aef5f4" style="stroke:#555555;stroke-width:0.5;"/>
      </defs>
      <g>
       <use style="fill:#555555;stroke:#555555;stroke-width:0.5;" x="33.621875" xlink:href="#m64c3aef5f4" y="260.2"/>
      </g>
     </g>
     <g id="line2d_3">
      <defs>
       <path d="
M0 0
L0 -4" id="m91191bb255" style="stroke:#555555;stroke-width:0.5;"/>
      </defs>
      <g>
       <use style="fill:#555555;stroke:#555555;stroke-width:0.5;" x="33.621875" xlink:href="#m91191bb255" y="15.3"/>
      </g>
     </g>
     <g id="text_1">
      <!-- 0.0 -->
      <defs>
       <path d="
M31.7812 66.4062
Q24.1719 66.4062 20.3281 58.9062
Q16.5 51.4219 16.5 36.375
Q16.5 21.3906 20.3281 13.8906
Q24.1719 6.39062 31.7812 6.39062
Q39.4531 6.39062 43.2812 13.8906
Q47.125 21.3906 47.125 36.375
Q47.125 51.4219 43.2812 58.9062
Q39.4531 66.4062 31.7812 66.4062
M31.7812 74.2188
Q44.0469 74.2188 50.5156 64.5156
Q56.9844 54.8281 56.9844 36.375
Q56.9844 17.9688 50.5156 8.26562
Q44.0469 -1.42188 31.7812 -1.42188
Q19.5312 -1.42188 13.0625 8.26562
Q6.59375 17.9688 6.59375 36.375
Q6.59375 54.8281 13.0625 64.5156
Q19.5312 74.2188 31.7812 74.2188" id="BitstreamVeraSans-Roman-30"/>
       <path d="
M10.6875 12.4062
L21 12.4062
L21 0
L10.6875 0
z
" id="BitstreamVeraSans-Roman-2e"/>
      </defs>
      <g style="fill:#555555;" transform="translate(26.33203125 275.7984375)scale(0.1 -0.1)">
       <use xlink:href="#BitstreamVeraSans-Roman-30"/>
       <use x="63.623046875" xlink:href="#BitstreamVeraSans-Roman-2e"/>
       <use x="95.41015625" xlink:href="#BitstreamVeraSans-Roman-30"/>
      </g>
     </g>
    </g>
    <g id="xtick_2">
     <g id="line2d_4">
      <path clip-path="url(#p0f64fca384)" d="
M82.8296 260.2
L82.8296 15.3" style="fill:none;stroke:#ffffff;stroke-linecap:square;stroke-width:0.5;"/>
     </g>
     <g id="line2d_5">
      <g>
       <use style="fill:#555555;stroke:#555555;stroke-width:0.5;" x="82.8295770202" xlink:href="#m64c3aef5f4" y="260.2"/>
      </g>
     </g>
     <g id="line2d_6">
      <g>
       <use style="fill:#555555;stroke:#555555;stroke-width:0.5;" x="82.8295770202" xlink:href="#m91191bb255" y="15.3"/>
      </g>
     </g>
     <g id="text_2">
      <!-- 0.2 -->
      <defs>
       <path d="
M19.1875 8.29688
L53.6094 8.29688
L53.6094 0
L7.32812 0
L7.32812 8.29688
Q12.9375 14.1094 22.625 23.8906
Q32.3281 33.6875 34.8125 36.5312
Q39.5469 41.8438 41.4219 45.5312
Q43.3125 49.2188 43.3125 52.7812
Q43.3125 58.5938 39.2344 62.25
Q35.1562 65.9219 28.6094 65.9219
Q23.9688 65.9219 18.8125 64.3125
Q13.6719 62.7031 7.8125 59.4219
L7.8125 69.3906
Q13.7656 71.7812 18.9375 73
Q24.125 74.2188 28.4219 74.2188
Q39.75 74.2188 46.4844 68.5469
Q53.2188 62.8906 53.2188 53.4219
Q53.2188 48.9219 51.5312 44.8906
Q49.8594 40.875 45.4062 35.4062
Q44.1875 33.9844 37.6406 27.2188
Q31.1094 20.4531 19.1875 8.29688" id="BitstreamVeraSans-Roman-32"/>
      </defs>
      <g style="fill:#555555;" transform="translate(75.7084832702 275.7984375)scale(0.1 -0.1)">
       <use xlink:href="#BitstreamVeraSans-Roman-30"/>
       <use x="63.623046875" xlink:href="#BitstreamVeraSans-Roman-2e"/>
       <use x="95.41015625" xlink:href="#BitstreamVeraSans-Roman-32"/>
      </g>
     </g>
    </g>
    <g id="xtick_3">
     <g id="line2d_7">
      <path clip-path="url(#p0f64fca384)" d="
M132.037 260.2
L132.037 15.3" style="fill:none;stroke:#ffffff;stroke-linecap:square;stroke-width:0.5;"/>
     </g>
     <g id="line2d_8">
      <g>
       <use style="fill:#555555;stroke:#555555;stroke-width:0.5;" x="132.03727904" xlink:href="#m64c3aef5f4" y="260.2"/>
      </g>
     </g>
     <g id="line2d_9">
      <g>
       <use style="fill:#555555;stroke:#555555;stroke-width:0.5;" x="132.03727904" xlink:href="#m91191bb255" y="15.3"/>
      </g>
     </g>
     <g id="text_3">
      <!-- 0.4 -->
      <defs>
       <path d="
M37.7969 64.3125
L12.8906 25.3906
L37.7969 25.3906
z

M35.2031 72.9062
L47.6094 72.9062
L47.6094 25.3906
L58.0156 25.3906
L58.0156 17.1875
L47.6094 17.1875
L47.6094 0
L37.7969 0
L37.7969 17.1875
L4.89062 17.1875
L4.89062 26.7031
z
" id="BitstreamVeraSans-Roman-34"/>
      </defs>
      <g style="fill:#555555;" transform="translate(124.69587279 275.7984375)scale(0.1 -0.1)">
       <use xlink:href="#BitstreamVeraSans-Roman-30"/>
       <use x="63.623046875" xlink:href="#BitstreamVeraSans-Roman-2e"/>
       <use x="95.41015625" xlink:href="#BitstreamVeraSans-Roman-34"/>
      </g>
     </g>
    </g>
    <g id="xtick_4">
     <g id="line2d_10">
      <path clip-path="url(#p0f64fca384)" d="
M181.245 260.2
L181.245 15.3" style="fill:none;stroke:#ffffff;stroke-linecap:square;stroke-width:0.5;"/>
     </g>
     <g id="line2d_11">
      <g>
       <use style="fill:#555555;stroke:#555555;stroke-width:0.5;" x="181.244981061" xlink:href="#m64c3aef5f4" y="260.2"/>
      </g>
     </g>
     <g id="line2d_12">
      <g>
       <use style="fill:#555555;stroke:#555555;stroke-width:0.5;" x="181.244981061" xlink:href="#m91191bb255" y="15.3"/>
      </g>
     </g>
     <g id="text_4">
      <!-- 0.6 -->
      <defs>
       <path d="
M33.0156 40.375
Q26.375 40.375 22.4844 35.8281
Q18.6094 31.2969 18.6094 23.3906
Q18.6094 15.5312 22.4844 10.9531
Q26.375 6.39062 33.0156 6.39062
Q39.6562 6.39062 43.5312 10.9531
Q47.4062 15.5312 47.4062 23.3906
Q47.4062 31.2969 43.5312 35.8281
Q39.6562 40.375 33.0156 40.375
M52.5938 71.2969
L52.5938 62.3125
Q48.875 64.0625 45.0938 64.9844
Q41.3125 65.9219 37.5938 65.9219
Q27.8281 65.9219 22.6719 59.3281
Q17.5312 52.7344 16.7969 39.4062
Q19.6719 43.6562 24.0156 45.9219
Q28.375 48.1875 33.5938 48.1875
Q44.5781 48.1875 50.9531 41.5156
Q57.3281 34.8594 57.3281 23.3906
Q57.3281 12.1562 50.6875 5.35938
Q44.0469 -1.42188 33.0156 -1.42188
Q20.3594 -1.42188 13.6719 8.26562
Q6.98438 17.9688 6.98438 36.375
Q6.98438 53.6562 15.1875 63.9375
Q23.3906 74.2188 37.2031 74.2188
Q40.9219 74.2188 44.7031 73.4844
Q48.4844 72.75 52.5938 71.2969" id="BitstreamVeraSans-Roman-36"/>
      </defs>
      <g style="fill:#555555;" transform="translate(173.937949811 275.7984375)scale(0.1 -0.1)">
       <use xlink:href="#BitstreamVeraSans-Roman-30"/>
       <use x="63.623046875" xlink:href="#BitstreamVeraSans-Roman-2e"/>
       <use x="95.41015625" xlink:href="#BitstreamVeraSans-Roman-36"/>
      </g>
     </g>
    </g>
    <g id="xtick_5">
     <g id="line2d_13">
      <path clip-path="url(#p0f64fca384)" d="
M230.453 260.2
L230.453 15.3" style="fill:none;stroke:#ffffff;stroke-linecap:square;stroke-width:0.5;"/>
     </g>
     <g id="line2d_14">
      <g>
       <use style="fill:#555555;stroke:#555555;stroke-width:0.5;" x="230.452683081" xlink:href="#m64c3aef5f4" y="260.2"/>
      </g>
     </g>
     <g id="line2d_15">
      <g>
       <use style="fill:#555555;stroke:#555555;stroke-width:0.5;" x="230.452683081" xlink:href="#m91191bb255" y="15.3"/>
      </g>
     </g>
     <g id="text_5">
      <!-- 0.8 -->
      <defs>
       <path d="
M31.7812 34.625
Q24.75 34.625 20.7188 30.8594
Q16.7031 27.0938 16.7031 20.5156
Q16.7031 13.9219 20.7188 10.1562
Q24.75 6.39062 31.7812 6.39062
Q38.8125 6.39062 42.8594 10.1719
Q46.9219 13.9688 46.9219 20.5156
Q46.9219 27.0938 42.8906 30.8594
Q38.875 34.625 31.7812 34.625
M21.9219 38.8125
Q15.5781 40.375 12.0312 44.7188
Q8.5 49.0781 8.5 55.3281
Q8.5 64.0625 14.7188 69.1406
Q20.9531 74.2188 31.7812 74.2188
Q42.6719 74.2188 48.875 69.1406
Q55.0781 64.0625 55.0781 55.3281
Q55.0781 49.0781 51.5312 44.7188
Q48 40.375 41.7031 38.8125
Q48.8281 37.1562 52.7969 32.3125
Q56.7812 27.4844 56.7812 20.5156
Q56.7812 9.90625 50.3125 4.23438
Q43.8438 -1.42188 31.7812 -1.42188
Q19.7344 -1.42188 13.25 4.23438
Q6.78125 9.90625 6.78125 20.5156
Q6.78125 27.4844 10.7812 32.3125
Q14.7969 37.1562 21.9219 38.8125
M18.3125 54.3906
Q18.3125 48.7344 21.8438 45.5625
Q25.3906 42.3906 31.7812 42.3906
Q38.1406 42.3906 41.7188 45.5625
Q45.3125 48.7344 45.3125 54.3906
Q45.3125 60.0625 41.7188 63.2344
Q38.1406 66.4062 31.7812 66.4062
Q25.3906 66.4062 21.8438 63.2344
Q18.3125 60.0625 18.3125 54.3906" id="BitstreamVeraSans-Roman-38"/>
      </defs>
      <g style="fill:#555555;" transform="translate(223.172995581 275.7984375)scale(0.1 -0.1)">
       <use xlink:href="#BitstreamVeraSans-Roman-30"/>
       <use x="63.623046875" xlink:href="#BitstreamVeraSans-Roman-2e"/>
       <use x="95.41015625" xlink:href="#BitstreamVeraSans-Roman-38"/>
      </g>
     </g>
    </g>
   </g>
   <g id="matplotlib.axis_2">
    <g id="ytick_1">
     <g id="line2d_16">
      <path clip-path="url(#p0f64fca384)" d="
M33.6219 260.2
L277.2 260.2" style="fill:none;stroke:#ffffff;stroke-linecap:square;stroke-width:0.5;"/>
     </g>
     <g id="line2d_17">
      <defs>
       <path d="
M0 0
L-4 0" id="mf591f037a3" style="stroke:#555555;stroke-width:0.5;"/>
      </defs>
      <g>
       <use style="fill:#555555;stroke:#555555;stroke-width:0.5;" x="33.621875" xlink:href="#mf591f037a3" y="260.2"/>
      </g>
     </g>
     <g id="line2d_18">
      <defs>
       <path d="
M0 0
L4 0" id="m9430d3eee0" style="stroke:#555555;stroke-width:0.5;"/>
      </defs>
      <g>
       <use style="fill:#555555;stroke:#555555;stroke-width:0.5;" x="277.2" xlink:href="#m9430d3eee0" y="260.2"/>
      </g>
     </g>
     <g id="text_6">
      <!-- 0.0 -->
      <g style="fill:#555555;" transform="translate(11.0421875 262.959375)scale(0.1 -0.1)">
       <use xlink:href="#BitstreamVeraSans-Roman-30"/>
       <use x="63.623046875" xlink:href="#BitstreamVeraSans-Roman-2e"/>
       <use x="95.41015625" xlink:href="#BitstreamVeraSans-Roman-30"/>
      </g>
     </g>
    </g>
    <g id="ytick_2">
     <g id="line2d_19">
      <path clip-path="url(#p0f64fca384)" d="
M33.6219 211.22
L277.2 211.22" style="fill:none;stroke:#ffffff;stroke-linecap:square;stroke-width:0.5;"/>
     </g>
     <g id="line2d_20">
      <g>
       <use style="fill:#555555;stroke:#555555;stroke-width:0.5;" x="33.621875" xlink:href="#mf591f037a3" y="211.22"/>
      </g>
     </g>
     <g id="line2d_21">
      <g>
       <use style="fill:#555555;stroke:#555555;stroke-width:0.5;" x="277.2" xlink:href="#m9430d3eee0" y="211.22"/>
      </g>
     </g>
     <g id="text_7">
      <!-- 0.2 -->
      <g style="fill:#555555;" transform="translate(11.3796875 213.979375)scale(0.1 -0.1)">
       <use xlink:href="#BitstreamVeraSans-Roman-30"/>
       <use x="63.623046875" xlink:href="#BitstreamVeraSans-Roman-2e"/>
       <use x="95.41015625" xlink:href="#BitstreamVeraSans-Roman-32"/>
      </g>
     </g>
    </g>
    <g id="ytick_3">
     <g id="line2d_22">
      <path clip-path="url(#p0f64fca384)" d="
M33.6219 162.24
L277.2 162.24" style="fill:none;stroke:#ffffff;stroke-linecap:square;stroke-width:0.5;"/>
     </g>
     <g id="line2d_23">
      <g>
       <use style="fill:#555555;stroke:#555555;stroke-width:0.5;" x="33.621875" xlink:href="#mf591f037a3" y="162.24"/>
      </g>
     </g>
     <g id="line2d_24">
      <g>
       <use style="fill:#555555;stroke:#555555;stroke-width:0.5;" x="277.2" xlink:href="#m9430d3eee0" y="162.24"/>
      </g>
     </g>
     <g id="text_8">
      <!-- 0.4 -->
      <g style="fill:#555555;" transform="translate(10.9390625 164.999375)scale(0.1 -0.1)">
       <use xlink:href="#BitstreamVeraSans-Roman-30"/>
       <use x="63.623046875" xlink:href="#BitstreamVeraSans-Roman-2e"/>
       <use x="95.41015625" xlink:href="#BitstreamVeraSans-Roman-34"/>
      </g>
     </g>
    </g>
    <g id="ytick_4">
     <g id="line2d_25">
      <path clip-path="url(#p0f64fca384)" d="
M33.6219 113.26
L277.2 113.26" style="fill:none;stroke:#ffffff;stroke-linecap:square;stroke-width:0.5;"/>
     </g>
     <g id="line2d_26">
      <g>
       <use style="fill:#555555;stroke:#555555;stroke-width:0.5;" x="33.621875" xlink:href="#mf591f037a3" y="113.26"/>
      </g>
     </g>
     <g id="line2d_27">
      <g>
       <use style="fill:#555555;stroke:#555555;stroke-width:0.5;" x="277.2" xlink:href="#m9430d3eee0" y="113.26"/>
      </g>
     </g>
     <g id="text_9">
      <!-- 0.6 -->
      <g style="fill:#555555;" transform="translate(11.0078125 116.019375)scale(0.1 -0.1)">
       <use xlink:href="#BitstreamVeraSans-Roman-30"/>
       <use x="63.623046875" xlink:href="#BitstreamVeraSans-Roman-2e"/>
       <use x="95.41015625" xlink:href="#BitstreamVeraSans-Roman-36"/>
      </g>
     </g>
    </g>
    <g id="ytick_5">
     <g id="line2d_28">
      <path clip-path="url(#p0f64fca384)" d="
M33.6219 64.28
L277.2 64.28" style="fill:none;stroke:#ffffff;stroke-linecap:square;stroke-width:0.5;"/>
     </g>
     <g id="line2d_29">
      <g>
       <use style="fill:#555555;stroke:#555555;stroke-width:0.5;" x="33.621875" xlink:href="#mf591f037a3" y="64.28"/>
      </g>
     </g>
     <g id="line2d_30">
      <g>
       <use style="fill:#555555;stroke:#555555;stroke-width:0.5;" x="277.2" xlink:href="#m9430d3eee0" y="64.28"/>
      </g>
     </g>
     <g id="text_10">
      <!-- 0.8 -->
      <g style="fill:#555555;" transform="translate(11.0625 67.039375)scale(0.1 -0.1)">
       <use xlink:href="#BitstreamVeraSans-Roman-30"/>
       <use x="63.623046875" xlink:href="#BitstreamVeraSans-Roman-2e"/>
       <use x="95.41015625" xlink:href="#BitstreamVeraSans-Roman-38"/>
      </g>
     </g>
    </g>
    <g id="ytick_6">
     <g id="line2d_31">
      <path clip-path="url(#p0f64fca384)" d="
M33.6219 15.3
L277.2 15.3" style="fill:none;stroke:#ffffff;stroke-linecap:square;stroke-width:0.5;"/>
     </g>
     <g id="line2d_32">
      <g>
       <use style="fill:#555555;stroke:#555555;stroke-width:0.5;" x="33.621875" xlink:href="#mf591f037a3" y="15.3"/>
      </g>
     </g>
     <g id="line2d_33">
      <g>
       <use style="fill:#555555;stroke:#555555;stroke-width:0.5;" x="277.2" xlink:href="#m9430d3eee0" y="15.3"/>
      </g>
     </g>
     <g id="text_11">
      <!-- 1.0 -->
      <defs>
       <path d="
M12.4062 8.29688
L28.5156 8.29688
L28.5156 63.9219
L10.9844 60.4062
L10.9844 69.3906
L28.4219 72.9062
L38.2812 72.9062
L38.2812 8.29688
L54.3906 8.29688
L54.3906 0
L12.4062 0
z
" id="BitstreamVeraSans-Roman-31"/>
      </defs>
      <g style="fill:#555555;" transform="translate(11.48125 18.059375)scale(0.1 -0.1)">
       <use xlink:href="#BitstreamVeraSans-Roman-31"/>
       <use x="63.623046875" xlink:href="#BitstreamVeraSans-Roman-2e"/>
       <use x="95.41015625" xlink:href="#BitstreamVeraSans-Roman-30"/>
      </g>
     </g>
    </g>
   </g>
   <g id="PolyCollection_1">
    <defs>
     <path d="
M33.6219 -205.669
L33.6219 -27.8
L36.0823 -27.8
L38.5426 -27.8
L41.003 -27.8
L43.4634 -27.8
L45.9238 -27.8
L48.3842 -27.8
L50.8446 -27.8
L53.305 -27.8
L55.7653 -27.8
L58.2257 -27.8
L60.6861 -27.8
L63.1465 -27.8
L65.6069 -27.8
L68.0673 -27.8
L70.5277 -27.8
L72.988 -27.8
L75.4484 -27.8
L77.9088 -27.8
L80.3692 -27.8
L82.8296 -27.8
L85.29 -27.8
L87.7503 -27.8
L90.2107 -27.8
L92.6711 -27.8
L95.1315 -27.8
L97.5919 -27.8
L100.052 -27.8
L102.513 -27.8
L104.973 -27.8
L107.433 -27.8
L109.894 -27.8
L112.354 -27.8
L114.815 -27.8
L117.275 -27.8
L119.735 -27.8
L122.196 -27.8
L124.656 -27.8
L127.117 -27.8
L129.577 -27.8
L132.037 -27.8
L134.498 -27.8
L136.958 -27.8
L139.418 -27.8
L141.879 -27.8
L144.339 -27.8
L146.8 -27.8
L149.26 -27.8
L151.72 -27.8
L154.181 -27.8
L156.641 -27.8
L159.102 -27.8
L161.562 -27.8
L164.022 -27.8
L166.483 -27.8
L168.943 -27.8
L171.403 -27.8
L173.864 -27.8
L176.324 -27.8
L178.785 -27.8
L181.245 -27.8
L183.705 -27.8
L186.166 -27.8
L188.626 -27.8
L191.087 -27.8
L193.547 -27.8
L196.007 -27.8
L198.468 -27.8
L200.928 -27.8
L203.388 -27.8
L205.849 -27.8
L208.309 -27.8
L210.77 -27.8
L213.23 -27.8
L215.69 -27.8
L218.151 -27.8
L220.611 -27.8
L223.072 -27.8
L225.532 -27.8
L227.992 -27.8
L230.453 -27.8
L232.913 -27.8
L235.373 -27.8
L237.834 -27.8
L240.294 -27.8
L242.755 -27.8
L245.215 -27.8
L247.675 -27.8
L250.136 -27.8
L252.596 -27.8
L255.057 -27.8
L257.517 -27.8
L259.977 -27.8
L262.438 -27.8
L264.898 -27.8
L267.358 -27.8
L269.819 -27.8
L272.279 -27.8
L274.74 -27.8
L277.2 -27.8
L277.2 -272.7
L277.2 -272.7
L274.74 -271.911
L272.279 -271.125
L269.819 -270.341
L267.358 -269.56
L264.898 -268.781
L262.438 -268.005
L259.977 -267.231
L257.517 -266.46
L255.057 -265.691
L252.596 -264.924
L250.136 -264.161
L247.675 -263.399
L245.215 -262.64
L242.755 -261.883
L240.294 -261.129
L237.834 -260.377
L235.373 -259.628
L232.913 -258.881
L230.453 -258.136
L227.992 -257.394
L225.532 -256.654
L223.072 -255.916
L220.611 -255.181
L218.151 -254.448
L215.69 -253.718
L213.23 -252.989
L210.77 -252.264
L208.309 -251.54
L205.849 -250.819
L203.388 -250.1
L200.928 -249.383
L198.468 -248.669
L196.007 -247.957
L193.547 -247.247
L191.087 -246.54
L188.626 -245.835
L186.166 -245.132
L183.705 -244.431
L181.245 -243.732
L178.785 -243.036
L176.324 -242.342
L173.864 -241.65
L171.403 -240.961
L168.943 -240.273
L166.483 -239.588
L164.022 -238.905
L161.562 -238.224
L159.102 -237.546
L156.641 -236.869
L154.181 -236.195
L151.72 -235.523
L149.26 -234.853
L146.8 -234.185
L144.339 -233.519
L141.879 -232.856
L139.418 -232.194
L136.958 -231.535
L134.498 -230.878
L132.037 -230.223
L129.577 -229.57
L127.117 -228.919
L124.656 -228.27
L122.196 -227.623
L119.735 -226.978
L117.275 -226.336
L114.815 -225.695
L112.354 -225.057
L109.894 -224.42
L107.433 -223.786
L104.973 -223.153
L102.513 -222.523
L100.052 -221.895
L97.5919 -221.268
L95.1315 -220.644
L92.6711 -220.022
L90.2107 -219.401
L87.7503 -218.783
L85.29 -218.166
L82.8296 -217.552
L80.3692 -216.94
L77.9088 -216.329
L75.4484 -215.721
L72.988 -215.114
L70.5277 -214.509
L68.0673 -213.907
L65.6069 -213.306
L63.1465 -212.707
L60.6861 -212.11
L58.2257 -211.515
L55.7653 -210.922
L53.305 -210.331
L50.8446 -209.742
L48.3842 -209.154
L45.9238 -208.569
L43.4634 -207.985
L41.003 -207.403
L38.5426 -206.823
L36.0823 -206.245
L33.6219 -205.669
z
" id="m69c0c6dc3b" style="stroke:#000000;stroke-width:0.5;"/>
    </defs>
    <g clip-path="url(#p0f64fca384)">
     <use style="stroke:#000000;stroke-width:0.5;" x="0.0" xlink:href="#m69c0c6dc3b" y="288.0"/>
    </g>
   </g>
   <g id="line2d_34">
    <path clip-path="url(#p0f64fca384)" d="
M33.6219 82.3308
L36.0823 81.7546
L38.5426 81.1766
L41.003 80.5967
L43.4634 80.0149
L45.9238 79.4313
L48.3842 78.8457
L50.8446 78.2583
L53.305 77.669
L55.7653 77.0779
L58.2257 76.4848
L60.6861 75.8898
L63.1465 75.2929
L65.6069 74.694
L68.0673 74.0933
L70.5277 73.4906
L72.988 72.886
L75.4484 72.2794
L77.9088 71.6709
L80.3692 71.0604
L82.8296 70.448
L85.29 69.8336
L87.7503 69.2172
L90.2107 68.5988
L92.6711 67.9785
L95.1315 67.3561
L97.5919 66.7318
L100.052 66.1054
L102.513 65.4771
L104.973 64.8467
L107.433 64.2143
L109.894 63.5798
L112.354 62.9433
L114.815 62.3048
L117.275 61.6642
L119.735 61.0216
L122.196 60.3769
L124.656 59.7301
L127.117 59.0813
L129.577 58.4304
L132.037 57.7774
L134.498 57.1222
L136.958 56.465
L139.418 55.8057
L141.879 55.1442
L144.339 54.4807
L146.8 53.815
L149.26 53.1471
L151.72 52.4771
L154.181 51.805
L156.641 51.1307
L159.102 50.4542
L161.562 49.7756
L164.022 49.0948
L166.483 48.4118
L168.943 47.7266
L171.403 47.0392
L173.864 46.3497
L176.324 45.6579
L178.785 44.9638
L181.245 44.2676
L183.705 43.5691
L186.166 42.8684
L188.626 42.1654
L191.087 41.4602
L193.547 40.7527
L196.007 40.0429
L198.468 39.3309
L200.928 38.6166
L203.388 37.9
L205.849 37.1811
L208.309 36.4599
L210.77 35.7363
L213.23 35.0105
L215.69 34.2823
L218.151 33.5518
L220.611 32.819
L223.072 32.0838
L225.532 31.3462
L227.992 30.6063
L230.453 29.864
L232.913 29.1194
L235.373 28.3723
L237.834 27.6229
L240.294 26.871
L242.755 26.1168
L245.215 25.3601
L247.675 24.601
L250.136 23.8395
L252.596 23.0755
L255.057 22.3091
L257.517 21.5402
L259.977 20.7689
L262.438 19.9951
L264.898 19.2188
L267.358 18.4401
L269.819 17.6588
L272.279 16.8751
L274.74 16.0888
L277.2 15.3" style="fill:none;stroke:#000000;stroke-linecap:square;"/>
   </g>
   <g id="patch_3">
    <path d="
M33.6219 15.3
L277.2 15.3" style="fill:none;stroke:#ffffff;stroke-linecap:square;stroke-linejoin:miter;"/>
   </g>
   <g id="patch_4">
    <path d="
M277.2 260.2
L277.2 15.3" style="fill:none;stroke:#ffffff;stroke-linecap:square;stroke-linejoin:miter;"/>
   </g>
   <g id="patch_5">
    <path d="
M33.6219 260.2
L277.2 260.2" style="fill:none;stroke:#ffffff;stroke-linecap:square;stroke-linejoin:miter;"/>
   </g>
   <g id="patch_6">
    <path d="
M33.6219 260.2
L33.6219 15.3" style="fill:none;stroke:#ffffff;stroke-linecap:square;stroke-linejoin:miter;"/>
   </g>
   <g id="legend_1">
    <g id="patch_7">
     <path d="
M39.6219 42.5138
L88.8688 42.5138
L88.8688 21.3
L39.6219 21.3
z
" style="fill:#e5e5e5;stroke:#ffffff;stroke-linejoin:miter;stroke-width:0.5;"/>
    </g>
    <g id="patch_8">
     <path d="
M44.4219 35.2181
L68.4219 35.2181
L68.4219 26.8181
L44.4219 26.8181
z
" style="stroke:#eeeeee;stroke-linejoin:miter;stroke-width:0.5;"/>
    </g>
    <g id="text_12">
     <!-- 0 -->
     <g transform="translate(78.021875 35.218125)scale(0.12 -0.12)">
      <use xlink:href="#BitstreamVeraSans-Roman-30"/>
     </g>
    </g>
   </g>
  </g>
 </g>
 <defs>
  <clipPath id="p0f64fca384">
   <rect height="244.9" width="243.578125" x="33.621875" y="15.3"/>
  </clipPath>
 </defs>
</svg>
