<?xml version="1.0" encoding="utf-8" standalone="no"?>
<!DOCTYPE svg PUBLIC "-//W3C//DTD SVG 1.1//EN"
  "http://www.w3.org/Graphics/SVG/1.1/DTD/svg11.dtd">
<!-- Created with matplotlib (http://matplotlib.org/) -->
<svg height="288pt" version="1.1" viewBox="0 0 288 288" width="288pt" xmlns="http://www.w3.org/2000/svg" xmlns:xlink="http://www.w3.org/1999/xlink">
 <defs>
  <style type="text/css">
*{stroke-linecap:butt;stroke-linejoin:round;}
  </style>
 </defs>
 <g id="figure_1">
  <g id="patch_1">
   <path d="
M0 288
L288 288
L288 0
L0 0
z
" style="fill:#ffffff;"/>
  </g>
  <g id="axes_1">
   <g id="patch_2">
    <path d="
M33.6219 260.2
L270.049 260.2
L270.049 15.3
L33.6219 15.3
z
" style="fill:#e5e5e5;"/>
   </g>
   <g id="matplotlib.axis_1">
    <g id="xtick_1">
     <g id="line2d_1">
      <path clip-path="url(#peab0866ef6)" d="
M33.6219 260.2
L33.6219 15.3" style="fill:none;stroke:#ffffff;stroke-linecap:square;stroke-width:0.5;"/>
     </g>
     <g id="line2d_2">
      <defs>
       <path d="
M0 0
L0 4" id="m64c3aef5f4" style="stroke:#555555;stroke-width:0.5;"/>
      </defs>
      <g>
       <use style="fill:#555555;stroke:#555555;stroke-width:0.5;" x="33.621875" xlink:href="#m64c3aef5f4" y="260.2"/>
      </g>
     </g>
     <g id="line2d_3">
      <defs>
       <path d="
M0 0
L0 -4" id="m91191bb255" style="stroke:#555555;stroke-width:0.5;"/>
      </defs>
      <g>
       <use style="fill:#555555;stroke:#555555;stroke-width:0.5;" x="33.621875" xlink:href="#m91191bb255" y="15.3"/>
      </g>
     </g>
     <g id="text_1">
      <!-- 0.0 -->
      <defs>
       <path d="
M31.7812 66.4062
Q24.1719 66.4062 20.3281 58.9062
Q16.5 51.4219 16.5 36.375
Q16.5 21.3906 20.3281 13.8906
Q24.1719 6.39062 31.7812 6.39062
Q39.4531 6.39062 43.2812 13.8906
Q47.125 21.3906 47.125 36.375
Q47.125 51.4219 43.2812 58.9062
Q39.4531 66.4062 31.7812 66.4062
M31.7812 74.2188
Q44.0469 74.2188 50.5156 64.5156
Q56.9844 54.8281 56.9844 36.375
Q56.9844 17.9688 50.5156 8.26562
Q44.0469 -1.42188 31.7812 -1.42188
Q19.5312 -1.42188 13.0625 8.26562
Q6.59375 17.9688 6.59375 36.375
Q6.59375 54.8281 13.0625 64.5156
Q19.5312 74.2188 31.7812 74.2188" id="BitstreamVeraSans-Roman-30"/>
       <path d="
M10.6875 12.4062
L21 12.4062
L21 0
L10.6875 0
z
" id="BitstreamVeraSans-Roman-2e"/>
      </defs>
      <g style="fill:#555555;" transform="translate(26.33203125 275.7984375)scale(0.1 -0.1)">
       <use xlink:href="#BitstreamVeraSans-Roman-30"/>
       <use x="63.623046875" xlink:href="#BitstreamVeraSans-Roman-2e"/>
       <use x="95.41015625" xlink:href="#BitstreamVeraSans-Roman-30"/>
      </g>
     </g>
    </g>
    <g id="xtick_2">
     <g id="line2d_4">
      <path clip-path="url(#peab0866ef6)" d="
M80.9073 260.2
L80.9073 15.3" style="fill:none;stroke:#ffffff;stroke-linecap:square;stroke-width:0.5;"/>
     </g>
     <g id="line2d_5">
      <g>
       <use style="fill:#555555;stroke:#555555;stroke-width:0.5;" x="80.90734375" xlink:href="#m64c3aef5f4" y="260.2"/>
      </g>
     </g>
     <g id="line2d_6">
      <g>
       <use style="fill:#555555;stroke:#555555;stroke-width:0.5;" x="80.90734375" xlink:href="#m91191bb255" y="15.3"/>
      </g>
     </g>
     <g id="text_2">
      <!-- 0.2 -->
      <defs>
       <path d="
M19.1875 8.29688
L53.6094 8.29688
L53.6094 0
L7.32812 0
L7.32812 8.29688
Q12.9375 14.1094 22.625 23.8906
Q32.3281 33.6875 34.8125 36.5312
Q39.5469 41.8438 41.4219 45.5312
Q43.3125 49.2188 43.3125 52.7812
Q43.3125 58.5938 39.2344 62.25
Q35.1562 65.9219 28.6094 65.9219
Q23.9688 65.9219 18.8125 64.3125
Q13.6719 62.7031 7.8125 59.4219
L7.8125 69.3906
Q13.7656 71.7812 18.9375 73
Q24.125 74.2188 28.4219 74.2188
Q39.75 74.2188 46.4844 68.5469
Q53.2188 62.8906 53.2188 53.4219
Q53.2188 48.9219 51.5312 44.8906
Q49.8594 40.875 45.4062 35.4062
Q44.1875 33.9844 37.6406 27.2188
Q31.1094 20.4531 19.1875 8.29688" id="BitstreamVeraSans-Roman-32"/>
      </defs>
      <g style="fill:#555555;" transform="translate(73.78625 275.7984375)scale(0.1 -0.1)">
       <use xlink:href="#BitstreamVeraSans-Roman-30"/>
       <use x="63.623046875" xlink:href="#BitstreamVeraSans-Roman-2e"/>
       <use x="95.41015625" xlink:href="#BitstreamVeraSans-Roman-32"/>
      </g>
     </g>
    </g>
    <g id="xtick_3">
     <g id="line2d_7">
      <path clip-path="url(#peab0866ef6)" d="
M128.193 260.2
L128.193 15.3" style="fill:none;stroke:#ffffff;stroke-linecap:square;stroke-width:0.5;"/>
     </g>
     <g id="line2d_8">
      <g>
       <use style="fill:#555555;stroke:#555555;stroke-width:0.5;" x="128.1928125" xlink:href="#m64c3aef5f4" y="260.2"/>
      </g>
     </g>
     <g id="line2d_9">
      <g>
       <use style="fill:#555555;stroke:#555555;stroke-width:0.5;" x="128.1928125" xlink:href="#m91191bb255" y="15.3"/>
      </g>
     </g>
     <g id="text_3">
      <!-- 0.4 -->
      <defs>
       <path d="
M37.7969 64.3125
L12.8906 25.3906
L37.7969 25.3906
z

M35.2031 72.9062
L47.6094 72.9062
L47.6094 25.3906
L58.0156 25.3906
L58.0156 17.1875
L47.6094 17.1875
L47.6094 0
L37.7969 0
L37.7969 17.1875
L4.89062 17.1875
L4.89062 26.7031
z
" id="BitstreamVeraSans-Roman-34"/>
      </defs>
      <g style="fill:#555555;" transform="translate(120.85140625 275.7984375)scale(0.1 -0.1)">
       <use xlink:href="#BitstreamVeraSans-Roman-30"/>
       <use x="63.623046875" xlink:href="#BitstreamVeraSans-Roman-2e"/>
       <use x="95.41015625" xlink:href="#BitstreamVeraSans-Roman-34"/>
      </g>
     </g>
    </g>
    <g id="xtick_4">
     <g id="line2d_10">
      <path clip-path="url(#peab0866ef6)" d="
M175.478 260.2
L175.478 15.3" style="fill:none;stroke:#ffffff;stroke-linecap:square;stroke-width:0.5;"/>
     </g>
     <g id="line2d_11">
      <g>
       <use style="fill:#555555;stroke:#555555;stroke-width:0.5;" x="175.47828125" xlink:href="#m64c3aef5f4" y="260.2"/>
      </g>
     </g>
     <g id="line2d_12">
      <g>
       <use style="fill:#555555;stroke:#555555;stroke-width:0.5;" x="175.47828125" xlink:href="#m91191bb255" y="15.3"/>
      </g>
     </g>
     <g id="text_4">
      <!-- 0.6 -->
      <defs>
       <path d="
M33.0156 40.375
Q26.375 40.375 22.4844 35.8281
Q18.6094 31.2969 18.6094 23.3906
Q18.6094 15.5312 22.4844 10.9531
Q26.375 6.39062 33.0156 6.39062
Q39.6562 6.39062 43.5312 10.9531
Q47.4062 15.5312 47.4062 23.3906
Q47.4062 31.2969 43.5312 35.8281
Q39.6562 40.375 33.0156 40.375
M52.5938 71.2969
L52.5938 62.3125
Q48.875 64.0625 45.0938 64.9844
Q41.3125 65.9219 37.5938 65.9219
Q27.8281 65.9219 22.6719 59.3281
Q17.5312 52.7344 16.7969 39.4062
Q19.6719 43.6562 24.0156 45.9219
Q28.375 48.1875 33.5938 48.1875
Q44.5781 48.1875 50.9531 41.5156
Q57.3281 34.8594 57.3281 23.3906
Q57.3281 12.1562 50.6875 5.35938
Q44.0469 -1.42188 33.0156 -1.42188
Q20.3594 -1.42188 13.6719 8.26562
Q6.98438 17.9688 6.98438 36.375
Q6.98438 53.6562 15.1875 63.9375
Q23.3906 74.2188 37.2031 74.2188
Q40.9219 74.2188 44.7031 73.4844
Q48.4844 72.75 52.5938 71.2969" id="BitstreamVeraSans-Roman-36"/>
      </defs>
      <g style="fill:#555555;" transform="translate(168.17125 275.7984375)scale(0.1 -0.1)">
       <use xlink:href="#BitstreamVeraSans-Roman-30"/>
       <use x="63.623046875" xlink:href="#BitstreamVeraSans-Roman-2e"/>
       <use x="95.41015625" xlink:href="#BitstreamVeraSans-Roman-36"/>
      </g>
     </g>
    </g>
    <g id="xtick_5">
     <g id="line2d_13">
      <path clip-path="url(#peab0866ef6)" d="
M222.764 260.2
L222.764 15.3" style="fill:none;stroke:#ffffff;stroke-linecap:square;stroke-width:0.5;"/>
     </g>
     <g id="line2d_14">
      <g>
       <use style="fill:#555555;stroke:#555555;stroke-width:0.5;" x="222.76375" xlink:href="#m64c3aef5f4" y="260.2"/>
      </g>
     </g>
     <g id="line2d_15">
      <g>
       <use style="fill:#555555;stroke:#555555;stroke-width:0.5;" x="222.76375" xlink:href="#m91191bb255" y="15.3"/>
      </g>
     </g>
     <g id="text_5">
      <!-- 0.8 -->
      <defs>
       <path d="
M31.7812 34.625
Q24.75 34.625 20.7188 30.8594
Q16.7031 27.0938 16.7031 20.5156
Q16.7031 13.9219 20.7188 10.1562
Q24.75 6.39062 31.7812 6.39062
Q38.8125 6.39062 42.8594 10.1719
Q46.9219 13.9688 46.9219 20.5156
Q46.9219 27.0938 42.8906 30.8594
Q38.875 34.625 31.7812 34.625
M21.9219 38.8125
Q15.5781 40.375 12.0312 44.7188
Q8.5 49.0781 8.5 55.3281
Q8.5 64.0625 14.7188 69.1406
Q20.9531 74.2188 31.7812 74.2188
Q42.6719 74.2188 48.875 69.1406
Q55.0781 64.0625 55.0781 55.3281
Q55.0781 49.0781 51.5312 44.7188
Q48 40.375 41.7031 38.8125
Q48.8281 37.1562 52.7969 32.3125
Q56.7812 27.4844 56.7812 20.5156
Q56.7812 9.90625 50.3125 4.23438
Q43.8438 -1.42188 31.7812 -1.42188
Q19.7344 -1.42188 13.25 4.23438
Q6.78125 9.90625 6.78125 20.5156
Q6.78125 27.4844 10.7812 32.3125
Q14.7969 37.1562 21.9219 38.8125
M18.3125 54.3906
Q18.3125 48.7344 21.8438 45.5625
Q25.3906 42.3906 31.7812 42.3906
Q38.1406 42.3906 41.7188 45.5625
Q45.3125 48.7344 45.3125 54.3906
Q45.3125 60.0625 41.7188 63.2344
Q38.1406 66.4062 31.7812 66.4062
Q25.3906 66.4062 21.8438 63.2344
Q18.3125 60.0625 18.3125 54.3906" id="BitstreamVeraSans-Roman-38"/>
      </defs>
      <g style="fill:#555555;" transform="translate(215.4840625 275.7984375)scale(0.1 -0.1)">
       <use xlink:href="#BitstreamVeraSans-Roman-30"/>
       <use x="63.623046875" xlink:href="#BitstreamVeraSans-Roman-2e"/>
       <use x="95.41015625" xlink:href="#BitstreamVeraSans-Roman-38"/>
      </g>
     </g>
    </g>
    <g id="xtick_6">
     <g id="line2d_16">
      <path clip-path="url(#peab0866ef6)" d="
M270.049 260.2
L270.049 15.3" style="fill:none;stroke:#ffffff;stroke-linecap:square;stroke-width:0.5;"/>
     </g>
     <g id="line2d_17">
      <g>
       <use style="fill:#555555;stroke:#555555;stroke-width:0.5;" x="270.04921875" xlink:href="#m64c3aef5f4" y="260.2"/>
      </g>
     </g>
     <g id="line2d_18">
      <g>
       <use style="fill:#555555;stroke:#555555;stroke-width:0.5;" x="270.04921875" xlink:href="#m91191bb255" y="15.3"/>
      </g>
     </g>
     <g id="text_6">
      <!-- 1.0 -->
      <defs>
       <path d="
M12.4062 8.29688
L28.5156 8.29688
L28.5156 63.9219
L10.9844 60.4062
L10.9844 69.3906
L28.4219 72.9062
L38.2812 72.9062
L38.2812 8.29688
L54.3906 8.29688
L54.3906 0
L12.4062 0
z
" id="BitstreamVeraSans-Roman-31"/>
      </defs>
      <g style="fill:#555555;" transform="translate(262.97890625 275.7984375)scale(0.1 -0.1)">
       <use xlink:href="#BitstreamVeraSans-Roman-31"/>
       <use x="63.623046875" xlink:href="#BitstreamVeraSans-Roman-2e"/>
       <use x="95.41015625" xlink:href="#BitstreamVeraSans-Roman-30"/>
      </g>
     </g>
    </g>
   </g>
   <g id="matplotlib.axis_2">
    <g id="ytick_1">
     <g id="line2d_19">
      <path clip-path="url(#peab0866ef6)" d="
M33.6219 260.2
L270.049 260.2" style="fill:none;stroke:#ffffff;stroke-linecap:square;stroke-width:0.5;"/>
     </g>
     <g id="line2d_20">
      <defs>
       <path d="
M0 0
L-4 0" id="mf591f037a3" style="stroke:#555555;stroke-width:0.5;"/>
      </defs>
      <g>
       <use style="fill:#555555;stroke:#555555;stroke-width:0.5;" x="33.621875" xlink:href="#mf591f037a3" y="260.2"/>
      </g>
     </g>
     <g id="line2d_21">
      <defs>
       <path d="
M0 0
L4 0" id="m9430d3eee0" style="stroke:#555555;stroke-width:0.5;"/>
      </defs>
      <g>
       <use style="fill:#555555;stroke:#555555;stroke-width:0.5;" x="270.04921875" xlink:href="#m9430d3eee0" y="260.2"/>
      </g>
     </g>
     <g id="text_7">
      <!-- 0.0 -->
      <g style="fill:#555555;" transform="translate(11.0421875 262.959375)scale(0.1 -0.1)">
       <use xlink:href="#BitstreamVeraSans-Roman-30"/>
       <use x="63.623046875" xlink:href="#BitstreamVeraSans-Roman-2e"/>
       <use x="95.41015625" xlink:href="#BitstreamVeraSans-Roman-30"/>
      </g>
     </g>
    </g>
    <g id="ytick_2">
     <g id="line2d_22">
      <path clip-path="url(#peab0866ef6)" d="
M33.6219 211.22
L270.049 211.22" style="fill:none;stroke:#ffffff;stroke-linecap:square;stroke-width:0.5;"/>
     </g>
     <g id="line2d_23">
      <g>
       <use style="fill:#555555;stroke:#555555;stroke-width:0.5;" x="33.621875" xlink:href="#mf591f037a3" y="211.22"/>
      </g>
     </g>
     <g id="line2d_24">
      <g>
       <use style="fill:#555555;stroke:#555555;stroke-width:0.5;" x="270.04921875" xlink:href="#m9430d3eee0" y="211.22"/>
      </g>
     </g>
     <g id="text_8">
      <!-- 0.2 -->
      <g style="fill:#555555;" transform="translate(11.3796875 213.979375)scale(0.1 -0.1)">
       <use xlink:href="#BitstreamVeraSans-Roman-30"/>
       <use x="63.623046875" xlink:href="#BitstreamVeraSans-Roman-2e"/>
       <use x="95.41015625" xlink:href="#BitstreamVeraSans-Roman-32"/>
      </g>
     </g>
    </g>
    <g id="ytick_3">
     <g id="line2d_25">
      <path clip-path="url(#peab0866ef6)" d="
M33.6219 162.24
L270.049 162.24" style="fill:none;stroke:#ffffff;stroke-linecap:square;stroke-width:0.5;"/>
     </g>
     <g id="line2d_26">
      <g>
       <use style="fill:#555555;stroke:#555555;stroke-width:0.5;" x="33.621875" xlink:href="#mf591f037a3" y="162.24"/>
      </g>
     </g>
     <g id="line2d_27">
      <g>
       <use style="fill:#555555;stroke:#555555;stroke-width:0.5;" x="270.04921875" xlink:href="#m9430d3eee0" y="162.24"/>
      </g>
     </g>
     <g id="text_9">
      <!-- 0.4 -->
      <g style="fill:#555555;" transform="translate(10.9390625 164.999375)scale(0.1 -0.1)">
       <use xlink:href="#BitstreamVeraSans-Roman-30"/>
       <use x="63.623046875" xlink:href="#BitstreamVeraSans-Roman-2e"/>
       <use x="95.41015625" xlink:href="#BitstreamVeraSans-Roman-34"/>
      </g>
     </g>
    </g>
    <g id="ytick_4">
     <g id="line2d_28">
      <path clip-path="url(#peab0866ef6)" d="
M33.6219 113.26
L270.049 113.26" style="fill:none;stroke:#ffffff;stroke-linecap:square;stroke-width:0.5;"/>
     </g>
     <g id="line2d_29">
      <g>
       <use style="fill:#555555;stroke:#555555;stroke-width:0.5;" x="33.621875" xlink:href="#mf591f037a3" y="113.26"/>
      </g>
     </g>
     <g id="line2d_30">
      <g>
       <use style="fill:#555555;stroke:#555555;stroke-width:0.5;" x="270.04921875" xlink:href="#m9430d3eee0" y="113.26"/>
      </g>
     </g>
     <g id="text_10">
      <!-- 0.6 -->
      <g style="fill:#555555;" transform="translate(11.0078125 116.019375)scale(0.1 -0.1)">
       <use xlink:href="#BitstreamVeraSans-Roman-30"/>
       <use x="63.623046875" xlink:href="#BitstreamVeraSans-Roman-2e"/>
       <use x="95.41015625" xlink:href="#BitstreamVeraSans-Roman-36"/>
      </g>
     </g>
    </g>
    <g id="ytick_5">
     <g id="line2d_31">
      <path clip-path="url(#peab0866ef6)" d="
M33.6219 64.28
L270.049 64.28" style="fill:none;stroke:#ffffff;stroke-linecap:square;stroke-width:0.5;"/>
     </g>
     <g id="line2d_32">
      <g>
       <use style="fill:#555555;stroke:#555555;stroke-width:0.5;" x="33.621875" xlink:href="#mf591f037a3" y="64.28"/>
      </g>
     </g>
     <g id="line2d_33">
      <g>
       <use style="fill:#555555;stroke:#555555;stroke-width:0.5;" x="270.04921875" xlink:href="#m9430d3eee0" y="64.28"/>
      </g>
     </g>
     <g id="text_11">
      <!-- 0.8 -->
      <g style="fill:#555555;" transform="translate(11.0625 67.039375)scale(0.1 -0.1)">
       <use xlink:href="#BitstreamVeraSans-Roman-30"/>
       <use x="63.623046875" xlink:href="#BitstreamVeraSans-Roman-2e"/>
       <use x="95.41015625" xlink:href="#BitstreamVeraSans-Roman-38"/>
      </g>
     </g>
    </g>
    <g id="ytick_6">
     <g id="line2d_34">
      <path clip-path="url(#peab0866ef6)" d="
M33.6219 15.3
L270.049 15.3" style="fill:none;stroke:#ffffff;stroke-linecap:square;stroke-width:0.5;"/>
     </g>
     <g id="line2d_35">
      <g>
       <use style="fill:#555555;stroke:#555555;stroke-width:0.5;" x="33.621875" xlink:href="#mf591f037a3" y="15.3"/>
      </g>
     </g>
     <g id="line2d_36">
      <g>
       <use style="fill:#555555;stroke:#555555;stroke-width:0.5;" x="270.04921875" xlink:href="#m9430d3eee0" y="15.3"/>
      </g>
     </g>
     <g id="text_12">
      <!-- 1.0 -->
      <g style="fill:#555555;" transform="translate(11.48125 18.059375)scale(0.1 -0.1)">
       <use xlink:href="#BitstreamVeraSans-Roman-31"/>
       <use x="63.623046875" xlink:href="#BitstreamVeraSans-Roman-2e"/>
       <use x="95.41015625" xlink:href="#BitstreamVeraSans-Roman-30"/>
      </g>
     </g>
    </g>
   </g>
   <g id="PolyCollection_1">
    <defs>
     <path d="
M33.6219 -272.7
L33.6219 -27.8
L34.5527 -27.8
L35.4835 -27.8
L36.4143 -27.8
L37.3451 -27.8
L38.276 -27.8
L39.2068 -27.8
L40.1376 -27.8
L41.0684 -27.8
L41.9992 -27.8
L42.93 -27.8
L43.8609 -27.8
L44.7917 -27.8
L45.7225 -27.8
L46.6533 -27.8
L47.5841 -27.8
L48.5149 -27.8
L49.4458 -27.8
L50.3766 -27.8
L51.3074 -27.8
L52.2382 -27.8
L53.169 -27.8
L54.0998 -27.8
L55.0307 -27.8
L55.9615 -27.8
L56.8923 -27.8
L57.8231 -27.8
L58.7539 -27.8
L59.6847 -27.8
L60.6155 -27.8
L61.5464 -27.8
L62.4772 -27.8
L63.408 -27.8
L64.3388 -27.8
L65.2696 -27.8
L66.2004 -27.8
L67.1313 -27.8
L68.0621 -27.8
L68.9929 -27.8
L69.9237 -27.8
L70.8545 -27.8
L71.7853 -27.8
L72.7162 -27.8
L73.647 -27.8
L74.5778 -27.8
L75.5086 -27.8
L76.4394 -27.8
L77.3702 -27.8
L78.3011 -27.8
L79.2319 -27.8
L80.1627 -27.8
L81.0935 -27.8
L82.0243 -27.8
L82.9551 -27.8
L83.886 -27.8
L84.8168 -27.8
L85.7476 -27.8
L86.6784 -27.8
L87.6092 -27.8
L88.54 -27.8
L89.4709 -27.8
L90.4017 -27.8
L91.3325 -27.8
L92.2633 -27.8
L93.1941 -27.8
L94.1249 -27.8
L95.0558 -27.8
L95.9866 -27.8
L96.9174 -27.8
L97.8482 -27.8
L98.779 -27.8
L99.7098 -27.8
L100.641 -27.8
L101.571 -27.8
L102.502 -27.8
L103.433 -27.8
L104.364 -27.8
L105.295 -27.8
L106.226 -27.8
L107.156 -27.8
L108.087 -27.8
L109.018 -27.8
L109.949 -27.8
L110.88 -27.8
L111.81 -27.8
L112.741 -27.8
L113.672 -27.8
L114.603 -27.8
L115.534 -27.8
L116.465 -27.8
L117.395 -27.8
L118.326 -27.8
L119.257 -27.8
L120.188 -27.8
L121.119 -27.8
L122.049 -27.8
L122.98 -27.8
L123.911 -27.8
L124.842 -27.8
L125.773 -27.8
L126.704 -27.8
L127.634 -27.8
L128.565 -27.8
L129.496 -27.8
L130.427 -27.8
L131.358 -27.8
L132.288 -27.8
L133.219 -27.8
L134.15 -27.8
L135.081 -27.8
L136.012 -27.8
L136.942 -27.8
L137.873 -27.8
L138.804 -27.8
L139.735 -27.8
L140.666 -27.8
L141.597 -27.8
L142.527 -27.8
L143.458 -27.8
L144.389 -27.8
L145.32 -27.8
L146.251 -27.8
L147.181 -27.8
L148.112 -27.8
L149.043 -27.8
L149.974 -27.8
L150.905 -27.8
L151.836 -27.8
L152.766 -27.8
L153.697 -27.8
L154.628 -27.8
L155.559 -27.8
L156.49 -27.8
L157.42 -27.8
L158.351 -27.8
L159.282 -27.8
L160.213 -27.8
L161.144 -27.8
L162.075 -27.8
L163.005 -27.8
L163.936 -27.8
L164.867 -27.8
L165.798 -27.8
L166.729 -27.8
L167.659 -27.8
L168.59 -27.8
L169.521 -27.8
L170.452 -27.8
L171.383 -27.8
L172.314 -27.8
L173.244 -27.8
L174.175 -27.8
L175.106 -27.8
L176.037 -27.8
L176.968 -27.8
L177.898 -27.8
L178.829 -27.8
L179.76 -27.8
L180.691 -27.8
L181.622 -27.8
L182.552 -27.8
L183.483 -27.8
L184.414 -27.8
L185.345 -27.8
L186.276 -27.8
L187.207 -27.8
L188.137 -27.8
L189.068 -27.8
L189.999 -27.8
L190.93 -27.8
L191.861 -27.8
L192.791 -27.8
L193.722 -27.8
L194.653 -27.8
L195.584 -27.8
L196.515 -27.8
L197.446 -27.8
L198.376 -27.8
L199.307 -27.8
L200.238 -27.8
L201.169 -27.8
L202.1 -27.8
L203.03 -27.8
L203.961 -27.8
L204.892 -27.8
L205.823 -27.8
L206.754 -27.8
L207.685 -27.8
L208.615 -27.8
L209.546 -27.8
L210.477 -27.8
L211.408 -27.8
L212.339 -27.8
L213.269 -27.8
L214.2 -27.8
L215.131 -27.8
L216.062 -27.8
L216.993 -27.8
L217.924 -27.8
L218.854 -27.8
L219.785 -27.8
L220.716 -27.8
L221.647 -27.8
L222.578 -27.8
L223.508 -27.8
L224.439 -27.8
L225.37 -27.8
L226.301 -27.8
L227.232 -27.8
L228.162 -27.8
L229.093 -27.8
L230.024 -27.8
L230.955 -27.8
L231.886 -27.8
L232.817 -27.8
L233.747 -27.8
L234.678 -27.8
L235.609 -27.8
L236.54 -27.8
L237.471 -27.8
L238.401 -27.8
L239.332 -27.8
L240.263 -27.8
L241.194 -27.8
L242.125 -27.8
L243.056 -27.8
L243.986 -27.8
L244.917 -27.8
L245.848 -27.8
L246.779 -27.8
L247.71 -27.8
L248.64 -27.8
L249.571 -27.8
L250.502 -27.8
L251.433 -27.8
L252.364 -27.8
L253.295 -27.8
L254.225 -27.8
L255.156 -27.8
L256.087 -27.8
L257.018 -27.8
L257.949 -27.8
L258.879 -27.8
L259.81 -27.8
L260.741 -27.8
L261.672 -27.8
L262.603 -27.8
L263.534 -27.8
L264.464 -27.8
L265.395 -27.8
L266.326 -27.8
L267.257 -27.8
L268.188 -27.8
L269.118 -27.8
L270.049 -27.8
L270.049 -272.209
L270.049 -272.209
L269.118 -271.715
L268.188 -271.219
L267.257 -270.721
L266.326 -270.22
L265.395 -269.716
L264.464 -269.209
L263.534 -268.7
L262.603 -268.188
L261.672 -267.673
L260.741 -267.155
L259.81 -266.635
L258.879 -266.111
L257.949 -265.584
L257.018 -265.055
L256.087 -264.522
L255.156 -263.986
L254.225 -263.447
L253.295 -262.904
L252.364 -262.358
L251.433 -261.809
L250.502 -261.256
L249.571 -260.7
L248.64 -260.14
L247.71 -259.576
L246.779 -259.008
L245.848 -258.437
L244.917 -257.862
L243.986 -257.283
L243.056 -256.699
L242.125 -256.112
L241.194 -255.52
L240.263 -254.924
L239.332 -254.323
L238.401 -253.718
L237.471 -253.108
L236.54 -252.493
L235.609 -251.874
L234.678 -251.249
L233.747 -250.619
L232.817 -249.985
L231.886 -249.344
L230.955 -248.698
L230.024 -248.047
L229.093 -247.389
L228.162 -246.726
L227.232 -246.056
L226.301 -245.38
L225.37 -244.697
L224.439 -244.008
L223.508 -243.312
L222.578 -242.609
L221.647 -241.898
L220.716 -241.18
L219.785 -240.454
L218.854 -239.719
L217.924 -238.977
L216.993 -238.225
L216.062 -237.465
L215.131 -236.695
L214.2 -235.916
L213.269 -235.127
L212.339 -234.327
L211.408 -233.516
L210.477 -232.694
L209.546 -231.86
L208.615 -231.014
L207.685 -230.155
L206.754 -229.282
L205.823 -228.395
L204.892 -227.493
L203.961 -226.576
L203.03 -225.642
L202.1 -224.69
L201.169 -223.72
L200.238 -222.73
L199.307 -221.72
L198.376 -220.687
L197.446 -219.631
L196.515 -218.549
L195.584 -217.44
L194.653 -216.301
L193.722 -215.13
L192.791 -213.924
L191.861 -212.68
L190.93 -211.393
L189.999 -210.06
L189.068 -208.674
L188.137 -207.23
L187.207 -205.718
L186.276 -204.128
L185.345 -202.447
L184.414 -200.658
L183.483 -198.735
L182.552 -196.645
L181.622 -194.332
L180.691 -191.707
L179.76 -188.594
L178.829 -184.536
L177.898 -174.74
L176.968 -42.1399
L176.037 -48.0796
L175.106 -52.6374
L174.175 -56.4798
L173.244 -59.8649
L172.314 -62.9254
L171.383 -65.7397
L170.452 -68.3593
L169.521 -70.8196
L168.59 -73.1467
L167.659 -75.36
L166.729 -77.4748
L165.798 -79.5032
L164.867 -81.4549
L163.936 -83.3381
L163.005 -85.1595
L162.075 -86.9248
L161.144 -88.6389
L160.213 -90.3061
L159.282 -91.9299
L158.351 -93.5136
L157.42 -95.06
L156.49 -96.5716
L155.559 -98.0508
L154.628 -99.4994
L153.697 -100.919
L152.766 -102.312
L151.836 -103.679
L150.905 -105.023
L149.974 -106.343
L149.043 -107.641
L148.112 -108.919
L147.181 -110.176
L146.251 -111.415
L145.32 -112.636
L144.389 -113.839
L143.458 -115.026
L142.527 -116.197
L141.597 -117.352
L140.666 -118.493
L139.735 -119.62
L138.804 -120.733
L137.873 -121.833
L136.942 -122.92
L136.012 -123.995
L135.081 -125.058
L134.15 -126.109
L133.219 -127.15
L132.288 -128.179
L131.358 -129.198
L130.427 -130.207
L129.496 -131.206
L128.565 -132.196
L127.634 -133.176
L126.704 -134.147
L125.773 -135.11
L124.842 -136.064
L123.911 -137.009
L122.98 -137.947
L122.049 -138.876
L121.119 -139.798
L120.188 -140.712
L119.257 -141.619
L118.326 -142.519
L117.395 -143.412
L116.465 -144.298
L115.534 -145.177
L114.603 -146.05
L113.672 -146.916
L112.741 -147.776
L111.81 -148.63
L110.88 -149.478
L109.949 -150.32
L109.018 -151.156
L108.087 -151.987
L107.156 -152.812
L106.226 -153.632
L105.295 -154.446
L104.364 -155.256
L103.433 -156.06
L102.502 -156.859
L101.571 -157.653
L100.641 -158.442
L99.7098 -159.227
L98.779 -160.007
L97.8482 -160.783
L96.9174 -161.553
L95.9866 -162.32
L95.0558 -163.082
L94.1249 -163.84
L93.1941 -164.594
L92.2633 -165.343
L91.3325 -166.089
L90.4017 -166.83
L89.4709 -167.568
L88.54 -168.302
L87.6092 -169.031
L86.6784 -169.758
L85.7476 -170.48
L84.8168 -171.199
L83.886 -171.914
L82.9551 -172.626
L82.0243 -173.334
L81.0935 -174.039
L80.1627 -174.74
L79.2319 -188.594
L78.3011 -194.332
L77.3702 -198.735
L76.4394 -202.447
L75.5086 -205.718
L74.5778 -208.674
L73.647 -211.393
L72.7162 -213.924
L71.7853 -216.301
L70.8545 -218.549
L69.9237 -220.687
L68.9929 -222.73
L68.0621 -224.69
L67.1313 -226.576
L66.2004 -228.395
L65.2696 -230.155
L64.3388 -231.86
L63.408 -233.516
L62.4772 -235.127
L61.5464 -236.695
L60.6155 -238.225
L59.6847 -239.719
L58.7539 -241.18
L57.8231 -242.609
L56.8923 -244.008
L55.9615 -245.38
L55.0307 -246.726
L54.0998 -248.047
L53.169 -249.344
L52.2382 -250.619
L51.3074 -251.874
L50.3766 -253.108
L49.4458 -254.323
L48.5149 -255.52
L47.5841 -256.699
L46.6533 -257.862
L45.7225 -259.008
L44.7917 -260.14
L43.8609 -261.256
L42.93 -262.358
L41.9992 -263.447
L41.0684 -264.522
L40.1376 -265.584
L39.2068 -266.635
L38.276 -267.673
L37.3451 -268.7
L36.4143 -269.716
L35.4835 -270.721
L34.5527 -271.715
L33.6219 -272.7
z
" id="m57a937687c" style="stroke:#000000;stroke-width:0.5;"/>
    </defs>
    <g clip-path="url(#peab0866ef6)">
     <use style="stroke:#000000;stroke-width:0.5;" x="0.0" xlink:href="#m57a937687c" y="288.0"/>
    </g>
   </g>
   <g id="line2d_37">
    <path clip-path="url(#peab0866ef6)" d="
M33.6219 15.3
L39.2068 21.3654
L43.8609 26.7441
L48.5149 32.4801
L52.2382 37.3805
L55.9615 42.62
L59.6847 48.2807
L62.4772 52.8734
L65.2696 57.8455
L68.0621 63.31
L69.9237 67.3127
L71.7853 71.6991
L73.647 76.6067
L75.5086 82.2823
L76.4394 85.5527
L77.3702 89.2648
L78.3011 93.668
L79.2319 99.4064
L80.1627 113.26
L88.54 119.698
L95.9866 125.68
L103.433 131.94
L109.949 137.68
L116.465 143.702
L122.98 150.053
L128.565 155.804
L134.15 161.891
L138.804 167.267
L143.458 172.974
L148.112 179.081
L151.836 184.321
L155.559 189.949
L159.282 196.07
L162.075 201.075
L164.867 206.545
L167.659 212.64
L169.521 217.18
L171.383 222.26
L173.244 228.135
L174.175 231.52
L175.106 235.363
L176.037 239.92
L176.968 245.86
L177.898 113.26
L178.829 103.464
L179.76 99.4064
L180.691 96.2928
L182.552 91.3555
L184.414 87.3422
L186.276 83.872
L188.137 80.7703
L190.93 76.6067
L193.722 72.8701
L196.515 69.451
L200.238 65.2696
L203.961 61.4244
L208.615 56.9863
L213.269 52.8734
L218.854 48.2807
L224.439 43.9918
L230.955 39.3018
L237.471 34.892
L244.917 30.1382
L252.364 25.6419
L260.741 20.8447
L270.049 15.791
L270.049 15.791" style="fill:none;stroke:#000000;stroke-linecap:square;"/>
   </g>
   <g id="patch_3">
    <path d="
M33.6219 15.3
L270.049 15.3" style="fill:none;stroke:#ffffff;stroke-linecap:square;stroke-linejoin:miter;"/>
   </g>
   <g id="patch_4">
    <path d="
M270.049 260.2
L270.049 15.3" style="fill:none;stroke:#ffffff;stroke-linecap:square;stroke-linejoin:miter;"/>
   </g>
   <g id="patch_5">
    <path d="
M33.6219 260.2
L270.049 260.2" style="fill:none;stroke:#ffffff;stroke-linecap:square;stroke-linejoin:miter;"/>
   </g>
   <g id="patch_6">
    <path d="
M33.6219 260.2
L33.6219 15.3" style="fill:none;stroke:#ffffff;stroke-linecap:square;stroke-linejoin:miter;"/>
   </g>
   <g id="legend_1">
    <g id="patch_7">
     <path d="
M39.6219 254.2
L88.8688 254.2
L88.8688 232.986
L39.6219 232.986
z
" style="fill:#e5e5e5;stroke:#ffffff;stroke-linejoin:miter;stroke-width:0.5;"/>
    </g>
    <g id="patch_8">
     <path d="
M44.4219 246.904
L68.4219 246.904
L68.4219 238.504
L44.4219 238.504
z
" style="stroke:#eeeeee;stroke-linejoin:miter;stroke-width:0.5;"/>
    </g>
    <g id="text_13">
     <!-- 0 -->
     <g transform="translate(78.021875 246.904375)scale(0.12 -0.12)">
      <use xlink:href="#BitstreamVeraSans-Roman-30"/>
     </g>
    </g>
   </g>
  </g>
 </g>
 <defs>
  <clipPath id="peab0866ef6">
   <rect height="244.9" width="236.42734375" x="33.621875" y="15.3"/>
  </clipPath>
 </defs>
</svg>
